<?xml version="1.0" encoding="utf-8"?>
<!-- Generator: Adobe Illustrator 22.0.1, SVG Export Plug-In . SVG Version: 6.00 Build 0)  -->
<svg version="1.1" id="Layer_1" xmlns="http://www.w3.org/2000/svg" xmlns:xlink="http://www.w3.org/1999/xlink" x="0px" y="0px"
	 viewBox="0 0 900 225" style="enable-background:new 0 0 900 225;" xml:space="preserve">
<style type="text/css">
	.st0{fill:#D6DD00;}
	.st1{fill:#1A1A18;}
	.st2{fill:#CCD401;}
	.st3{fill:none;stroke:#D6DD00;stroke-width:3;}
	.st4{fill:#66C05D;}
	.st5{enable-background:new    ;}
	.st6{fill:#333333;}
</style>
<g>
	<path class="st0" d="M19,144.6h3l0,67.6c-0.3,5.8,2,8.4,7.5,8.4H287v3H29.5c-7.2,0-10.9-4.1-10.5-11.5C19,212.1,19,144.6,19,144.6z
		"/>
	<g transform="translate(-98 .001)">
		<ellipse class="st1" cx="86.5" cy="86.5" rx="86.5" ry="86.6"/>
		<ellipse class="st2" cx="86.5" cy="86.5" rx="57.5" ry="57.5"/>
	</g>
	<path class="st3" d="M270,222.1h16c0,0,7.8,1.2,21-7l49-33c0,0,13.2-7.6,1-12c0,0-2.6-1.8-10-3c0,0,15.2-8.2,24,6l1,1l10,13
		c0,0,3.8,4,1,6l-4,3c0,0-3.2,3.2-7-3l-5-7l-52,37"/>
	<path class="st0" d="M382.3,172.1L382.3,172.1L382.3,172.1L382.3,172.1L382.3,172.1z M376.2,178.2l-2.8-2.8l6.2-6.2l0.1-0.1
		c3.4-3,5.9-5.1,7.8-6.2c0.3-0.2,3.6-2.3,4.5-2.8c3.8-2.1,7.6-2.8,17.6-2.8h491v4h-491c-9.3,0-12.6,0.5-15.6,2.3
		c-0.8,0.4-4,2.5-4.3,2.7c-1.6,1-4,2.9-7.2,5.8L376.2,178.2z"/>
	<path class="st4" d="M393.9,163.6l-2-3.5c3.8-2.1,7.6-2.8,17.6-2.8h491v4h-491C400.2,161.3,396.9,161.9,393.9,163.6z"/>
	<g class="st5">
		<path class="st6" d="M126.3,50.2h6.8l-8.7,20c-0.6,1.4-1.3,2.6-2,3.6c-0.7,1-1.5,1.8-2.5,2.5c-1,0.7-2.1,1.2-3.5,1.6
			s-2.9,0.5-4.7,0.5l-0.3-5.3c1.2,0,2.3-0.2,3.3-0.6c1-0.4,1.8-1.1,2.6-2.1l-8.9-20.2h6.8l5.4,13.4L126.3,50.2z"/>
		<path class="st6" d="M146.1,78.5c-1.8,0-3.5-0.3-5-0.9c-1.5-0.6-2.8-1.5-4-2.7s-2-2.7-2.6-4.5c-0.6-1.8-0.9-3.9-0.9-6.3
			c0-2.3,0.3-4.4,0.9-6.2c0.6-1.8,1.5-3.4,2.6-4.6c1.1-1.2,2.4-2.1,3.9-2.7s3.1-0.9,4.9-0.9c1.4,0,2.7,0.2,3.9,0.6
			c1.2,0.4,2.2,0.9,3.1,1.6c0.8,0.7,1.6,1.4,2.1,2.2s1,1.7,1.2,2.6l-5.7,1.7c-0.9-2.1-2.4-3.1-4.5-3.1c-2,0-3.5,0.7-4.6,2.2
			s-1.6,3.7-1.6,6.8c0,3,0.6,5.3,1.7,6.8c1.1,1.5,2.7,2.2,4.7,2.2c2.1,0,3.6-1.1,4.5-3.2l5.7,1.7c-0.3,0.9-0.7,1.8-1.2,2.6
			s-1.3,1.5-2.1,2.2c-0.8,0.7-1.9,1.2-3.1,1.6C148.8,78.3,147.5,78.5,146.1,78.5z"/>
		<path class="st6" d="M166.3,78V55.5h-8v-5.3h22.1v5.3h-8V78H166.3z"/>
		<path class="st6" d="M197,78l-1.4-5.2h-8.8l-1.4,5.2H179l8.4-27.8h7.9l8.4,27.8H197z M188.2,67.6h6l-3-10.7L188.2,67.6z"/>
		<path class="st6" d="M207.4,78V50.2h6.2v11.2h10.9V50.2h6.2V78h-6.2V66.7h-10.9V78H207.4z"/>
		<path class="st6" d="M256,74.8c-2.1,2.5-5,3.8-8.6,3.8c-3.6,0-6.5-1.2-8.6-3.8s-3.2-6.1-3.2-10.7c0-4.6,1.1-8.2,3.2-10.7
			s5-3.7,8.6-3.7c3.6,0,6.5,1.2,8.6,3.7s3.2,6,3.2,10.7C259.2,68.7,258.1,72.3,256,74.8z M247.4,73.1c0.8,0,1.5-0.2,2.2-0.5
			s1.2-0.8,1.7-1.5s0.9-1.6,1.2-2.8s0.4-2.6,0.4-4.2c0-1.6-0.1-3-0.4-4.2s-0.7-2.1-1.2-2.8s-1.1-1.2-1.7-1.5s-1.4-0.5-2.2-0.5
			c-1.7,0-3,0.7-4,2.1s-1.5,3.7-1.5,6.8c0,1.6,0.1,3,0.4,4.2c0.3,1.2,0.7,2.1,1.2,2.8c0.5,0.7,1.1,1.2,1.7,1.5
			S246.6,73.1,247.4,73.1z"/>
		<path class="st6" d="M264.2,78V50.2h10.1c0.9,0,1.7,0.1,2.5,0.2c0.8,0.1,1.6,0.3,2.4,0.6c0.8,0.3,1.6,0.7,2.2,1.2s1.1,1.2,1.5,2.1
			s0.6,1.9,0.6,3c0,1-0.1,1.8-0.4,2.6c-0.2,0.8-0.6,1.4-1,1.9s-0.9,0.9-1.2,1.2c-0.4,0.3-0.8,0.5-1.3,0.8v0c0.4,0.1,0.7,0.3,1.1,0.5
			s0.8,0.5,1.2,0.8c0.4,0.4,0.8,0.8,1.1,1.2s0.6,1,0.8,1.7c0.2,0.7,0.3,1.4,0.3,2.1c0,1.2-0.2,2.2-0.5,3.1c-0.3,0.9-0.8,1.6-1.3,2.2
			s-1.3,1.1-2.1,1.4s-1.7,0.6-2.7,0.8s-2,0.2-3.2,0.2H264.2z M270.3,61.4h3.3c1.1,0,1.9-0.3,2.5-0.8s0.8-1.3,0.8-2.3
			c0-1-0.3-1.7-0.9-2.1c-0.6-0.5-1.4-0.7-2.4-0.7h-3.3V61.4z M270.3,72.7h3.6c2.3,0,3.5-1,3.5-3c0-1-0.3-1.7-1-2.2
			c-0.6-0.5-1.5-0.8-2.6-0.8h-3.5V72.7z"/>
		<path class="st6" d="M302.2,62c0.9,0.5,1.8,1.2,2.5,2.1c0.8,0.9,1.4,2,2,3.1c0.6,1.2,1.1,2.4,1.5,3.5s1,2.5,1.6,3.8
			c0.6,1.3,1.2,2.5,1.8,3.4h-7.1c-0.5-0.6-0.9-1.5-1.4-2.5s-0.9-2.1-1.3-3s-0.8-1.9-1.2-2.8c-0.4-0.9-1-1.6-1.6-2.2
			c-0.6-0.5-1.3-0.8-2.1-0.8h-1.6V78h-6.2V50.2h6.2v11.1h1.1l3.7-6.8c1.8-3.2,4.1-4.8,7-4.8c0.7,0,1.4,0.1,2.2,0.3
			c0.7,0.2,1.4,0.4,1.8,0.7l-1.3,5c-0.8-0.5-1.5-0.7-2.1-0.7c-1,0-1.8,0.5-2.4,1.6L302.2,62z"/>
		<path class="st6" d="M330.9,78l-1.4-5.2h-8.8l-1.4,5.2h-6.4l8.4-27.8h7.9l8.4,27.8H330.9z M322,67.6h6l-3-10.7L322,67.6z"/>
		<path class="st6" d="M354.7,78V55.5h-8v-5.3h22.1v5.3h-8V78H354.7z"/>
		<path class="st6" d="M390.6,74.8c-2.1,2.5-5,3.8-8.6,3.8c-3.6,0-6.5-1.2-8.6-3.8s-3.2-6.1-3.2-10.7c0-4.6,1.1-8.2,3.2-10.7
			s5-3.7,8.6-3.7c3.6,0,6.5,1.2,8.6,3.7s3.2,6,3.2,10.7C393.8,68.7,392.7,72.3,390.6,74.8z M382,73.1c0.8,0,1.5-0.2,2.2-0.5
			s1.2-0.8,1.7-1.5s0.9-1.6,1.2-2.8s0.4-2.6,0.4-4.2c0-1.6-0.1-3-0.4-4.2s-0.7-2.1-1.2-2.8s-1.1-1.2-1.7-1.5s-1.4-0.5-2.2-0.5
			c-1.7,0-3,0.7-4,2.1s-1.5,3.7-1.5,6.8c0,1.6,0.1,3,0.4,4.2c0.3,1.2,0.7,2.1,1.2,2.8c0.5,0.7,1.1,1.2,1.7,1.5S381.1,73.1,382,73.1z
			"/>
		<path class="st6" d="M398.7,78V50.2h10.1c0.9,0,1.7,0.1,2.5,0.2c0.8,0.1,1.6,0.3,2.4,0.6c0.8,0.3,1.6,0.7,2.2,1.2s1.1,1.2,1.5,2.1
			s0.6,1.9,0.6,3c0,1-0.1,1.8-0.4,2.6c-0.2,0.8-0.6,1.4-1,1.9s-0.9,0.9-1.2,1.2c-0.4,0.3-0.8,0.5-1.3,0.8v0c0.4,0.1,0.7,0.3,1.1,0.5
			s0.8,0.5,1.2,0.8c0.4,0.4,0.8,0.8,1.1,1.2s0.6,1,0.8,1.7c0.2,0.7,0.3,1.4,0.3,2.1c0,1.2-0.2,2.2-0.5,3.1c-0.3,0.9-0.8,1.6-1.3,2.2
			s-1.3,1.1-2.1,1.4s-1.7,0.6-2.7,0.8s-2,0.2-3.2,0.2H398.7z M404.9,61.4h3.3c1.1,0,1.9-0.3,2.5-0.8s0.8-1.3,0.8-2.3
			c0-1-0.3-1.7-0.9-2.1c-0.6-0.5-1.4-0.7-2.4-0.7h-3.3V61.4z M404.9,72.7h3.6c2.3,0,3.5-1,3.5-3c0-1-0.3-1.7-1-2.2
			c-0.6-0.5-1.5-0.8-2.6-0.8h-3.5V72.7z"/>
		<path class="st6" d="M439.4,78l-1.4-5.2h-8.8l-1.4,5.2h-6.4l8.4-27.8h7.9l8.4,27.8H439.4z M430.5,67.6h6l-3-10.7L430.5,67.6z"/>
		<path class="st6" d="M449.7,78V50.2h9.3c3,0,5.5,0.8,7.3,2.4c1.9,1.6,2.8,3.9,2.8,6.7c0,2.9-0.9,5.2-2.8,6.9s-4.4,2.5-7.4,2.5h-3
			V78H449.7z M455.9,63.4h2.6c1.3,0,2.4-0.3,3.1-1c0.8-0.7,1.2-1.7,1.2-3c0-1.3-0.4-2.2-1.1-2.9c-0.7-0.7-1.7-1-3-1h-2.8V63.4z"/>
		<path class="st6" d="M492.6,74.8c-2.1,2.5-5,3.8-8.6,3.8c-3.6,0-6.5-1.2-8.6-3.8s-3.2-6.1-3.2-10.7c0-4.6,1.1-8.2,3.2-10.7
			s5-3.7,8.6-3.7c3.6,0,6.5,1.2,8.6,3.7s3.2,6,3.2,10.7C495.8,68.7,494.8,72.3,492.6,74.8z M484,73.1c0.8,0,1.5-0.2,2.2-0.5
			s1.2-0.8,1.7-1.5s0.9-1.6,1.2-2.8s0.4-2.6,0.4-4.2c0-1.6-0.1-3-0.4-4.2s-0.7-2.1-1.2-2.8s-1.1-1.2-1.7-1.5s-1.4-0.5-2.2-0.5
			c-1.7,0-3,0.7-4,2.1s-1.5,3.7-1.5,6.8c0,1.6,0.1,3,0.4,4.2c0.3,1.2,0.7,2.1,1.2,2.8c0.5,0.7,1.1,1.2,1.7,1.5S483.2,73.1,484,73.1z
			"/>
		<path class="st6" d="M500.8,78V50.2h10.1c0.9,0,1.7,0.1,2.5,0.2c0.8,0.1,1.6,0.3,2.4,0.6c0.8,0.3,1.6,0.7,2.2,1.2s1.1,1.2,1.5,2.1
			s0.6,1.9,0.6,3c0,1-0.1,1.8-0.4,2.6c-0.2,0.8-0.6,1.4-1,1.9s-0.9,0.9-1.2,1.2c-0.4,0.3-0.8,0.5-1.3,0.8v0c0.4,0.1,0.7,0.3,1.1,0.5
			s0.8,0.5,1.2,0.8c0.4,0.4,0.8,0.8,1.1,1.2s0.6,1,0.8,1.7c0.2,0.7,0.3,1.4,0.3,2.1c0,1.2-0.2,2.2-0.5,3.1c-0.3,0.9-0.8,1.6-1.3,2.2
			s-1.3,1.1-2.1,1.4s-1.7,0.6-2.7,0.8s-2,0.2-3.2,0.2H500.8z M507,61.4h3.3c1.1,0,1.9-0.3,2.5-0.8s0.8-1.3,0.8-2.3
			c0-1-0.3-1.7-0.9-2.1c-0.6-0.5-1.4-0.7-2.4-0.7H507V61.4z M507,72.7h3.6c2.3,0,3.5-1,3.5-3c0-1-0.3-1.7-1-2.2
			c-0.6-0.5-1.5-0.8-2.6-0.8H507V72.7z"/>
		<path class="st6" d="M526.4,85.6l-1.7-2.6c1-0.5,2-1.1,2.7-2c0.8-0.8,1.2-1.7,1.2-2.6c0-0.2,0-0.4-0.1-0.6
			c-0.4,0.2-0.8,0.3-1.3,0.3c-0.8,0-1.5-0.3-2-0.9c-0.6-0.6-0.8-1.3-0.8-2.3c0-0.9,0.3-1.7,0.9-2.3c0.6-0.7,1.4-1,2.5-1
			c1.5,0,2.6,0.5,3.4,1.6c0.8,1.1,1.2,2.4,1.2,4C532.4,81.2,530.4,84,526.4,85.6z"/>
	</g>
	<g class="st5">
		<path class="st6" d="M111.2,121V93.2h23V121H128V98.5h-10.6V121H111.2z"/>
		<path class="st6" d="M140.5,121V93.2h9.3c3,0,5.5,0.8,7.3,2.4c1.9,1.6,2.8,3.9,2.8,6.7c0,2.9-0.9,5.2-2.8,6.9s-4.4,2.5-7.4,2.5h-3
			v9.3H140.5z M146.7,106.4h2.6c1.3,0,2.4-0.3,3.1-1c0.8-0.7,1.2-1.7,1.2-3c0-1.3-0.4-2.2-1.1-2.9c-0.7-0.7-1.7-1-3-1h-2.8V106.4z"
			/>
		<path class="st6" d="M186.9,121h-6.2v-16.8L170.1,121h-5.8V93.2h6.2v16.7l10.6-16.7h5.8V121z"/>
		<path class="st6" d="M212.2,117.8c-2.1,2.5-5,3.8-8.6,3.8c-3.6,0-6.5-1.2-8.6-3.8s-3.2-6.1-3.2-10.7c0-4.6,1.1-8.2,3.2-10.7
			s5-3.7,8.6-3.7c3.6,0,6.5,1.2,8.6,3.7s3.2,6,3.2,10.7C215.4,111.7,214.3,115.3,212.2,117.8z M203.6,116.1c0.8,0,1.5-0.2,2.2-0.5
			c0.6-0.3,1.2-0.8,1.7-1.5s0.9-1.6,1.2-2.8s0.4-2.6,0.4-4.2c0-1.6-0.1-3-0.4-4.2s-0.7-2.1-1.2-2.8s-1.1-1.2-1.7-1.5
			s-1.4-0.5-2.2-0.5c-1.7,0-3,0.7-4,2.1s-1.5,3.7-1.5,6.8c0,1.6,0.1,3,0.4,4.2c0.3,1.2,0.7,2.1,1.2,2.8c0.5,0.7,1.1,1.2,1.7,1.5
			C202.1,115.9,202.8,116.1,203.6,116.1z"/>
		<path class="st6" d="M233.7,104.4c1.4,0,2.7,0.2,3.8,0.7s2,1.1,2.7,1.9c0.7,0.8,1.2,1.7,1.6,2.6s0.6,2,0.6,3.1
			c0,1.1-0.2,2.1-0.6,3c-0.4,1-0.9,1.8-1.6,2.6c-0.7,0.8-1.6,1.4-2.7,1.9c-1.1,0.5-2.4,0.7-3.8,0.7h-13.3V93.2h14.1v5.3h-7.9v5.9
			H233.7z M232.9,115.7c1,0,1.7-0.3,2.3-0.9c0.6-0.6,0.8-1.3,0.8-2.1c0-0.8-0.3-1.5-0.8-2.1s-1.3-0.9-2.3-0.9h-6.3v6H232.9z"/>
		<path class="st6" d="M246.1,121V93.2h9.3c3,0,5.5,0.8,7.3,2.4c1.9,1.6,2.8,3.9,2.8,6.7c0,2.9-0.9,5.2-2.8,6.9s-4.4,2.5-7.4,2.5h-3
			v9.3H246.1z M252.3,106.4h2.6c1.3,0,2.4-0.3,3.1-1c0.8-0.7,1.2-1.7,1.2-3c0-1.3-0.4-2.2-1.1-2.9c-0.7-0.7-1.7-1-3-1h-2.8V106.4z"
			/>
		<path class="st6" d="M270,121V93.2h17.6v5.3h-11.4v6h9.9v5.3h-9.9v5.9h12.3v5.3H270z"/>
		<path class="st6" d="M298.3,121V98.5h-8v-5.3h22.1v5.3h-8V121H298.3z"/>
		<path class="st6" d="M316.4,121V93.2H334v5.3h-11.4v6h9.9v5.3h-9.9v5.9H335v5.3H316.4z"/>
		<path class="st6" d="M340.6,121V93.2h6.2v11.2h10.9V93.2h6.2V121h-6.2v-11.3h-10.9V121H340.6z"/>
		<path class="st6" d="M370.2,121V93.2h6.2v11.2h10.9V93.2h6.2V121h-6.2v-11.3h-10.9V121H370.2z"/>
		<path class="st6" d="M413.1,104.4c1.4,0,2.7,0.2,3.8,0.7s2,1.1,2.7,1.9c0.7,0.8,1.2,1.7,1.6,2.6s0.6,2,0.6,3.1
			c0,1.1-0.2,2.1-0.6,3c-0.4,1-0.9,1.8-1.6,2.6c-0.7,0.8-1.6,1.4-2.7,1.9c-1.1,0.5-2.4,0.7-3.8,0.7h-13.3V93.2h6.2v11.2H413.1z
			 M412.3,115.7c1,0,1.7-0.3,2.3-0.9c0.6-0.6,0.8-1.3,0.8-2.1c0-0.8-0.3-1.5-0.8-2.1s-1.3-0.9-2.3-0.9h-6.3v6H412.3z M424.4,93.2
			h6.2V121h-6.2V93.2z"/>
		<path class="st6" d="M460,93.2l-8.7,13.8l8.7,14h-7.7l-5.2-8.4l-5.5,8.4h-6.9l8.9-13.9L435,93.2h7.6l5.2,8.4l5.3-8.4H460z"/>
		<path class="st6" d="M472.2,121V93.2h10.1c0.9,0,1.7,0.1,2.5,0.2c0.8,0.1,1.6,0.3,2.4,0.6c0.8,0.3,1.6,0.7,2.2,1.2
			s1.1,1.2,1.5,2.1s0.6,1.9,0.6,3c0,1-0.1,1.8-0.4,2.6c-0.2,0.8-0.6,1.4-1,1.9s-0.9,0.9-1.2,1.2c-0.4,0.3-0.8,0.5-1.3,0.8v0
			c0.4,0.1,0.7,0.3,1.1,0.5s0.8,0.5,1.2,0.8c0.4,0.4,0.8,0.8,1.1,1.2s0.6,1,0.8,1.7c0.2,0.7,0.3,1.4,0.3,2.1c0,1.2-0.2,2.2-0.5,3.1
			c-0.3,0.9-0.8,1.6-1.3,2.2s-1.3,1.1-2.1,1.4s-1.7,0.6-2.7,0.8s-2,0.2-3.2,0.2H472.2z M478.4,104.4h3.3c1.1,0,1.9-0.3,2.5-0.8
			s0.8-1.3,0.8-2.3c0-1-0.3-1.7-0.9-2.1c-0.6-0.5-1.4-0.7-2.4-0.7h-3.3V104.4z M478.4,115.7h3.6c2.3,0,3.5-1,3.5-3
			c0-1-0.3-1.7-1-2.2c-0.6-0.5-1.5-0.8-2.6-0.8h-3.5V115.7z"/>
		<path class="st6" d="M509,116.6l-5-8.5l5-8.5l3.7,1.2l-3.8,7.3l3.8,7.3L509,116.6z M517.4,116.6l-5-8.5l5-8.5l3.7,1.2l-3.8,7.3
			l3.8,7.3L517.4,116.6z"/>
		<path class="st6" d="M523.2,121v-5.3c1.4,0,2.3-0.2,2.9-0.7c0.6-0.5,0.9-1.5,1-2.9l1.2-18.9H549V121h-6.2V98.5H534l-1,13.7
			c-0.1,1.7-0.4,3.1-0.9,4.2c-0.5,1.1-1.1,2.1-2,2.7c-0.8,0.7-1.8,1.1-2.9,1.4C526.1,120.9,524.7,121,523.2,121z"/>
		<path class="st6" d="M555.3,121V93.2h17.6v5.3h-11.4v6h9.9v5.3h-9.9v5.9h12.3v5.3H555.3z"/>
		<path class="st6" d="M579.5,121V93.2h9.3c3,0,5.5,0.8,7.3,2.4c1.9,1.6,2.8,3.9,2.8,6.7c0,2.9-0.9,5.2-2.8,6.9s-4.4,2.5-7.4,2.5h-3
			v9.3H579.5z M585.7,106.4h2.6c1.3,0,2.4-0.3,3.1-1c0.8-0.7,1.2-1.7,1.2-3c0-1.3-0.4-2.2-1.1-2.9c-0.7-0.7-1.7-1-3-1h-2.8V106.4z"
			/>
		<path class="st6" d="M618.5,93.2h6.8l-8.7,20c-0.6,1.4-1.3,2.6-2,3.6c-0.7,1-1.5,1.8-2.5,2.5c-1,0.7-2.1,1.2-3.5,1.6
			c-1.3,0.3-2.9,0.5-4.7,0.5l-0.3-5.3c1.2,0,2.3-0.2,3.3-0.6c1-0.4,1.8-1.1,2.6-2.1l-8.9-20.2h6.8l5.4,13.4L618.5,93.2z"/>
		<path class="st6" d="M640.2,121l-1.4-5.2h-8.8l-1.4,5.2h-6.4l8.4-27.8h7.9l8.4,27.8H640.2z M631.3,110.6h6l-3-10.7L631.3,110.6z"
			/>
		<path class="st6" d="M658.3,121V93.2h6.6l7.5,14l7.6-14h6.6V121h-6.2v-16.9l-5.5,10.8h-5l-5.5-10.8V121H658.3z"/>
		<path class="st6" d="M693,121V93.2h17.6v5.3h-11.4v6h9.9v5.3h-9.9v5.9h12.3v5.3H693z"/>
		<path class="st6" d="M717.2,121V93.2h9.3c3,0,5.5,0.8,7.3,2.4c1.9,1.6,2.8,3.9,2.8,6.7c0,2.9-0.9,5.2-2.8,6.9s-4.4,2.5-7.4,2.5h-3
			v9.3H717.2z M723.4,106.4h2.6c1.3,0,2.4-0.3,3.1-1c0.8-0.7,1.2-1.7,1.2-3c0-1.3-0.4-2.2-1.1-2.9c-0.7-0.7-1.7-1-3-1h-2.8V106.4z"
			/>
		<path class="st6" d="M736.8,121v-5.3c1.4,0,2.3-0.2,2.9-0.7c0.6-0.5,0.9-1.5,1-2.9l1.2-18.9h20.7V121h-6.2V98.5h-8.8l-1,13.7
			c-0.1,1.7-0.4,3.1-0.9,4.2c-0.5,1.1-1.1,2.1-2,2.7c-0.8,0.7-1.8,1.1-2.9,1.4C739.7,120.9,738.3,121,736.8,121z"/>
		<path class="st6" d="M768.9,121V93.2h17.6v5.3h-11.4v6h9.9v5.3h-9.9v5.9h12.3v5.3H768.9z"/>
		<path class="st6" d="M793.1,121V93.2h6.2v11.2h10.9V93.2h6.2V121h-6.2v-11.3h-10.9V121H793.1z"/>
		<path class="st6" d="M825,116.6l-3.7-1.2l3.8-7.3l-3.8-7.3l3.7-1.2l5,8.5L825,116.6z M833.4,116.6l-3.7-1.2l3.8-7.3l-3.8-7.3
			l3.7-1.2l5,8.5L833.4,116.6z"/>
	</g>
</g>
</svg>
